<svg xmlns="http://www.w3.org/2000/svg" width="900" height="680" font-family="Inter, -apple-system, sans-serif">
  <rect width="900" height="680" fill="#d8dde3" rx="12"/>
  <text x="450" y="36" fill="#0a192f" font-size="18" font-weight="700" text-anchor="middle">Light Theme — Green Accent Options (Cool Gray BG #f0f4f8)</text>

  <!-- ─── Option A: Current — #0fa37f ─── -->
  <g transform="translate(20, 60)">
    <rect width="260" height="280" fill="#f0f4f8" rx="10"/>
    <rect width="260" height="44" fill="#e4eaf0" rx="10"/>
    <rect y="34" width="260" height="10" fill="#e4eaf0"/>
    <text x="14" y="27" fill="#0a192f" font-size="12" font-weight="600">buffden</text>
    <text x="160" y="27" fill="#4a5568" font-size="10">About</text>
    <text x="195" y="27" fill="#4a5568" font-size="10">Work</text>
    <text x="230" y="27" fill="#4a5568" font-size="10">Contact</text>
    <text x="14" y="76" fill="#0fa37f" font-size="10" font-family="monospace">Hi, my name is</text>
    <text x="14" y="110" fill="#0a192f" font-size="22" font-weight="700">Harshwardhan.</text>
    <text x="14" y="140" fill="#4a5568" font-size="13" font-weight="600">I build things for the web.</text>
    <rect x="14" y="156" width="110" height="28" fill="none" stroke="#0fa37f" stroke-width="1.5" rx="4"/>
    <text x="69" y="175" fill="#0fa37f" font-size="10" text-anchor="middle">Check out my work</text>
    <!-- skills chip -->
    <rect x="14" y="200" width="60" height="22" fill="rgba(15,163,127,0.08)" stroke="#0fa37f" stroke-width="1" rx="6"/>
    <text x="44" y="215" fill="#0fa37f" font-size="10" text-anchor="middle">React</text>
    <rect x="80" y="200" width="60" height="22" fill="rgba(15,163,127,0.08)" stroke="#0fa37f" stroke-width="1" rx="6"/>
    <text x="110" y="215" fill="#0fa37f" font-size="10" text-anchor="middle">TypeScript</text>
    <!-- swatch -->
    <rect x="14" y="238" width="16" height="16" fill="#0fa37f" rx="3"/>
    <text x="34" y="250" fill="#4a5568" font-size="10">#0fa37f</text>
    <text x="130" y="272" fill="#888" font-size="10" text-anchor="middle">A — Current (too light?)</text>
  </g>

  <!-- ─── Option B: #0d8f6f ─── -->
  <g transform="translate(320, 60)">
    <rect width="260" height="280" fill="#f0f4f8" rx="10"/>
    <rect width="260" height="44" fill="#e4eaf0" rx="10"/>
    <rect y="34" width="260" height="10" fill="#e4eaf0"/>
    <text x="14" y="27" fill="#0a192f" font-size="12" font-weight="600">buffden</text>
    <text x="160" y="27" fill="#4a5568" font-size="10">About</text>
    <text x="195" y="27" fill="#4a5568" font-size="10">Work</text>
    <text x="230" y="27" fill="#4a5568" font-size="10">Contact</text>
    <text x="14" y="76" fill="#0d8f6f" font-size="10" font-family="monospace">Hi, my name is</text>
    <text x="14" y="110" fill="#0a192f" font-size="22" font-weight="700">Harshwardhan.</text>
    <text x="14" y="140" fill="#4a5568" font-size="13" font-weight="600">I build things for the web.</text>
    <rect x="14" y="156" width="110" height="28" fill="none" stroke="#0d8f6f" stroke-width="1.5" rx="4"/>
    <text x="69" y="175" fill="#0d8f6f" font-size="10" text-anchor="middle">Check out my work</text>
    <rect x="14" y="200" width="60" height="22" fill="rgba(13,143,111,0.08)" stroke="#0d8f6f" stroke-width="1" rx="6"/>
    <text x="44" y="215" fill="#0d8f6f" font-size="10" text-anchor="middle">React</text>
    <rect x="80" y="200" width="60" height="22" fill="rgba(13,143,111,0.08)" stroke="#0d8f6f" stroke-width="1" rx="6"/>
    <text x="110" y="215" fill="#0d8f6f" font-size="10" text-anchor="middle">TypeScript</text>
    <rect x="14" y="238" width="16" height="16" fill="#0d8f6f" rx="3"/>
    <text x="34" y="250" fill="#4a5568" font-size="10">#0d8f6f</text>
    <text x="130" y="272" fill="#888" font-size="10" text-anchor="middle">B — Medium (–12% light)</text>
  </g>

  <!-- ─── Option C: #0a7d5f ─── -->
  <g transform="translate(620, 60)">
    <rect width="260" height="280" fill="#f0f4f8" rx="10"/>
    <rect width="260" height="44" fill="#e4eaf0" rx="10"/>
    <rect y="34" width="260" height="10" fill="#e4eaf0"/>
    <text x="14" y="27" fill="#0a192f" font-size="12" font-weight="600">buffden</text>
    <text x="160" y="27" fill="#4a5568" font-size="10">About</text>
    <text x="195" y="27" fill="#4a5568" font-size="10">Work</text>
    <text x="230" y="27" fill="#4a5568" font-size="10">Contact</text>
    <text x="14" y="76" fill="#0a7d5f" font-size="10" font-family="monospace">Hi, my name is</text>
    <text x="14" y="110" fill="#0a192f" font-size="22" font-weight="700">Harshwardhan.</text>
    <text x="14" y="140" fill="#4a5568" font-size="13" font-weight="600">I build things for the web.</text>
    <rect x="14" y="156" width="110" height="28" fill="none" stroke="#0a7d5f" stroke-width="1.5" rx="4"/>
    <text x="69" y="175" fill="#0a7d5f" font-size="10" text-anchor="middle">Check out my work</text>
    <rect x="14" y="200" width="60" height="22" fill="rgba(10,125,95,0.08)" stroke="#0a7d5f" stroke-width="1" rx="6"/>
    <text x="44" y="215" fill="#0a7d5f" font-size="10" text-anchor="middle">React</text>
    <rect x="80" y="200" width="60" height="22" fill="rgba(10,125,95,0.08)" stroke="#0a7d5f" stroke-width="1" rx="6"/>
    <text x="110" y="215" fill="#0a7d5f" font-size="10" text-anchor="middle">TypeScript</text>
    <rect x="14" y="238" width="16" height="16" fill="#0a7d5f" rx="3"/>
    <text x="34" y="250" fill="#4a5568" font-size="10">#0a7d5f</text>
    <text x="130" y="272" fill="#888" font-size="10" text-anchor="middle">C — Deeper (–25% light)</text>
  </g>

  <!-- ─── Option D: #057a55 ─── -->
  <g transform="translate(20, 380)">
    <rect width="260" height="280" fill="#f0f4f8" rx="10"/>
    <rect width="260" height="44" fill="#e4eaf0" rx="10"/>
    <rect y="34" width="260" height="10" fill="#e4eaf0"/>
    <text x="14" y="27" fill="#0a192f" font-size="12" font-weight="600">buffden</text>
    <text x="160" y="27" fill="#4a5568" font-size="10">About</text>
    <text x="195" y="27" fill="#4a5568" font-size="10">Work</text>
    <text x="230" y="27" fill="#4a5568" font-size="10">Contact</text>
    <text x="14" y="76" fill="#057a55" font-size="10" font-family="monospace">Hi, my name is</text>
    <text x="14" y="110" fill="#0a192f" font-size="22" font-weight="700">Harshwardhan.</text>
    <text x="14" y="140" fill="#4a5568" font-size="13" font-weight="600">I build things for the web.</text>
    <rect x="14" y="156" width="110" height="28" fill="none" stroke="#057a55" stroke-width="1.5" rx="4"/>
    <text x="69" y="175" fill="#057a55" font-size="10" text-anchor="middle">Check out my work</text>
    <rect x="14" y="200" width="60" height="22" fill="rgba(5,122,85,0.08)" stroke="#057a55" stroke-width="1" rx="6"/>
    <text x="44" y="215" fill="#057a55" font-size="10" text-anchor="middle">React</text>
    <rect x="80" y="200" width="60" height="22" fill="rgba(5,122,85,0.08)" stroke="#057a55" stroke-width="1" rx="6"/>
    <text x="110" y="215" fill="#057a55" font-size="10" text-anchor="middle">TypeScript</text>
    <rect x="14" y="238" width="16" height="16" fill="#057a55" rx="3"/>
    <text x="34" y="250" fill="#4a5568" font-size="10">#057a55</text>
    <text x="130" y="272" fill="#888" font-size="10" text-anchor="middle">D — Forest (more depth)</text>
  </g>

  <!-- ─── Option E: #0e9a73 (saturated) ─── -->
  <g transform="translate(320, 380)">
    <rect width="260" height="280" fill="#f0f4f8" rx="10"/>
    <rect width="260" height="44" fill="#e4eaf0" rx="10"/>
    <rect y="34" width="260" height="10" fill="#e4eaf0"/>
    <text x="14" y="27" fill="#0a192f" font-size="12" font-weight="600">buffden</text>
    <text x="160" y="27" fill="#4a5568" font-size="10">About</text>
    <text x="195" y="27" fill="#4a5568" font-size="10">Work</text>
    <text x="230" y="27" fill="#4a5568" font-size="10">Contact</text>
    <text x="14" y="76" fill="#0e9a73" font-size="10" font-family="monospace">Hi, my name is</text>
    <text x="14" y="110" fill="#0a192f" font-size="22" font-weight="700">Harshwardhan.</text>
    <text x="14" y="140" fill="#4a5568" font-size="13" font-weight="600">I build things for the web.</text>
    <rect x="14" y="156" width="110" height="28" fill="none" stroke="#0e9a73" stroke-width="1.5" rx="4"/>
    <text x="69" y="175" fill="#0e9a73" font-size="10" text-anchor="middle">Check out my work</text>
    <rect x="14" y="200" width="60" height="22" fill="rgba(14,154,115,0.08)" stroke="#0e9a73" stroke-width="1" rx="6"/>
    <text x="44" y="215" fill="#0e9a73" font-size="10" text-anchor="middle">React</text>
    <rect x="80" y="200" width="60" height="22" fill="rgba(14,154,115,0.08)" stroke="#0e9a73" stroke-width="1" rx="6"/>
    <text x="110" y="215" fill="#0e9a73" font-size="10" text-anchor="middle">TypeScript</text>
    <rect x="14" y="238" width="16" height="16" fill="#0e9a73" rx="3"/>
    <text x="34" y="250" fill="#4a5568" font-size="10">#0e9a73</text>
    <text x="130" y="272" fill="#888" font-size="10" text-anchor="middle">E — Vivid (more saturation)</text>
  </g>

  <!-- ─── Option F: #10b981 (Tailwind emerald-500) ─── -->
  <g transform="translate(620, 380)">
    <rect width="260" height="280" fill="#f0f4f8" rx="10"/>
    <rect width="260" height="44" fill="#e4eaf0" rx="10"/>
    <rect y="34" width="260" height="10" fill="#e4eaf0"/>
    <text x="14" y="27" fill="#0a192f" font-size="12" font-weight="600">buffden</text>
    <text x="160" y="27" fill="#4a5568" font-size="10">About</text>
    <text x="195" y="27" fill="#4a5568" font-size="10">Work</text>
    <text x="230" y="27" fill="#4a5568" font-size="10">Contact</text>
    <text x="14" y="76" fill="#10b981" font-size="10" font-family="monospace">Hi, my name is</text>
    <text x="14" y="110" fill="#0a192f" font-size="22" font-weight="700">Harshwardhan.</text>
    <text x="14" y="140" fill="#4a5568" font-size="13" font-weight="600">I build things for the web.</text>
    <rect x="14" y="156" width="110" height="28" fill="none" stroke="#10b981" stroke-width="1.5" rx="4"/>
    <text x="69" y="175" fill="#10b981" font-size="10" text-anchor="middle">Check out my work</text>
    <rect x="14" y="200" width="60" height="22" fill="rgba(16,185,129,0.08)" stroke="#10b981" stroke-width="1" rx="6"/>
    <text x="44" y="215" fill="#10b981" font-size="10" text-anchor="middle">React</text>
    <rect x="80" y="200" width="60" height="22" fill="rgba(16,185,129,0.08)" stroke="#10b981" stroke-width="1" rx="6"/>
    <text x="110" y="215" fill="#10b981" font-size="10" text-anchor="middle">TypeScript</text>
    <rect x="14" y="238" width="16" height="16" fill="#10b981" rx="3"/>
    <text x="34" y="250" fill="#4a5568" font-size="10">#10b981</text>
    <text x="130" y="272" fill="#888" font-size="10" text-anchor="middle">F — Tailwind emerald-500</text>
  </g>

  <!-- legend -->
  <text x="450" y="666" fill="#666" font-size="11" text-anchor="middle">All on Cool Gray background #f0f4f8 — open in browser to compare</text>
</svg>
