<svg width="80px" height="80px" viewBox="0 0 80 80" version="1.1" xmlns="http://www.w3.org/2000/svg" xmlns:xlink="http://www.w3.org/1999/xlink">
    <defs>
        <linearGradient x1="0%" y1="100%" x2="100%" y2="0%" id="linearGradient-1">
            <stop stop-color="#B0084D" offset="0%"></stop>
            <stop stop-color="#FF4F8B" offset="100%"></stop>
        </linearGradient>
    </defs>
    <g stroke="none" stroke-width="1" fill="none" fill-rule="evenodd">
        <g fill="url(#linearGradient-1)"><rect x="0" y="0" width="80" height="80"></rect></g>
        <path d="M28.7169966,43.6876756 L31.7189265,40.721826 C31.9070474,40.5359011 32.0131156,40.2833614 32.0141233,40.019885 C32.0151169,39.7564086 31.9100493,39.5028747 31.722929,39.3159556 L28.7209992,36.3163014 L27.3020871,37.7181948 L28.5899149,39.0057494 L24.0089701,39.0057494 L24.0089701,40.9942506 L28.6059252,40.9942506 L27.3060896,42.2778282 L28.7169966,43.6876756 Z M51.627725,43.7781524 L55.630298,40.793412 C55.8804589,40.6054986 56.0295547,40.3112004 56.0295547,39.9990057 C56.0295547,39.6858168 55.8804589,39.3905244 55.6292974,39.202611 L51.6267243,36.2218476 L50.4259524,37.8126486 L52.0269816,39.0057494 L48.0244085,39.0057494 L48.0244085,40.9942506 L52.025981,40.9942506 L50.4249518,42.1873514 L51.627725,43.7781524 Z M35.2081695,40 C35.2081695,42.1107941 34.8429347,44.1012839 34.160496,45.8332685 C35.9606533,45.14127 37.9909585,44.7952708 40.0192624,44.7952708 C42.0475663,44.7952708 44.0778715,45.14127 45.8770281,45.8332685 C45.19559,44.1012839 44.8303552,42.1107941 44.8303552,40 C44.8303552,37.8892059 45.19559,35.8997104 45.8770281,34.1667315 C42.2777142,35.5497341 37.7608105,35.5497341 34.160496,34.1667315 C34.8429347,35.8997104 35.2081695,37.8892059 35.2081695,40 L35.2081695,40 Z M30.3060182,49.6511909 C30.1108927,49.4573121 30.0128297,49.2027839 30.0128297,48.9482557 C30.0128297,48.6937276 30.1108927,48.4391994 30.3060182,48.2453205 C32.1221857,46.4407556 33.206883,43.3575844 33.206883,40 C33.206883,36.6424156 32.1221857,33.5592444 30.3060182,31.7546795 C30.1108927,31.5608006 30.0128297,31.3062724 30.0128297,31.0517443 C30.0128297,30.7972161 30.1108927,30.5426879 30.3060182,30.3488091 C30.6972697,29.9600571 31.3296762,29.9600571 31.7209277,30.3488091 C35.5984204,34.2015303 44.4401044,34.2015303 48.317597,30.3488091 C48.7088485,29.9600571 49.3412551,29.9600571 49.7325066,30.3488091 C49.927632,30.5426879 50.0256951,30.7972161 50.0256951,31.0517443 C50.0256951,31.3062724 49.927632,31.5608006 49.7325066,31.7546795 C47.9163391,33.5592444 46.8316418,36.6424156 46.8316418,40 C46.8316418,43.3575844 47.9163391,46.4407556 49.7325066,48.2453205 C49.927632,48.4391994 50.0256951,48.6937276 50.0256951,48.9482557 C50.0256951,49.2027839 49.927632,49.4573121 49.7325066,49.6511909 C49.5373812,49.8450698 49.2812165,49.9425064 49.0250518,49.9425064 C48.7688871,49.9425064 48.5127225,49.8450698 48.317597,49.6511909 C44.4401044,45.7984697 35.5984204,45.7984697 31.7209277,49.6511909 C31.3296762,50.0399429 30.6972697,50.0399429 30.3060182,49.6511909 L30.3060182,49.6511909 Z M54.8958259,54.856093 C50.901258,58.8261358 45.5888428,61.0114987 39.9392109,61.0114987 C34.2875777,61.0114987 28.9761632,58.8261358 24.9815953,54.856093 C22.241834,52.134829 20.7338646,48.8826352 19.9513616,46.6346345 L18.0601458,47.2848744 C18.9116932,49.730731 20.5577514,53.273246 23.5666857,56.2619634 C27.9394968,60.607833 33.7532342,63 39.9392109,63 C46.124187,63 51.9379244,60.607833 56.3107355,56.2619634 C58.8373597,53.7534691 60.8496533,50.563913 61.9793796,47.2818917 L60.0861625,46.6376173 C59.0534987,49.6382657 57.2103138,52.5573856 54.8958259,54.856093 L54.8958259,54.856093 Z M19.9503609,33.3663597 L18.0611465,32.7141313 C19.2719248,29.2501621 21.229183,26.0606061 23.5726896,23.7330653 C27.9434994,19.3911728 33.7552355,17 39.9392109,17 C46.1231863,17 51.9349225,19.3911728 56.3047316,23.7330653 C58.7713173,26.1838931 60.8396469,29.4569662 61.9773783,32.7141313 L60.0881638,33.3663597 C59.0444929,30.3836078 57.1502752,27.3849479 54.889822,25.1389357 C50.898256,21.1718757 45.5878422,18.9885013 39.9392109,18.9885013 C34.289579,18.9885013 28.9801658,21.1718757 24.9875992,25.1389357 C22.8542277,27.2596723 21.0650775,30.181775 19.9503609,33.3663597 L19.9503609,33.3663597 Z" fill="#FFFFFF"></path>
    </g>
</svg>
